<?xml version="1.0" encoding="UTF-8"?>
<svg id="Layer_2" data-name="Layer 2" xmlns="http://www.w3.org/2000/svg" viewBox="0 0 311.6 395.44">
  <defs>
    <style>
      .cls-1 {
        fill: #fff;
        stroke: #231f20;
        stroke-miterlimit: 10;
        stroke-width: 3px;
      }
    </style>
  </defs>
  <g id="Layer_1-2" data-name="Layer 1">
    <path class="cls-1" d="m1.5,366.51V42.21c0-1.87.64-3.68,1.79-5.07L23.64,12.6c12.27-14.8,32.35-14.8,44.62,0l20.35,24.55c1.15,1.39,1.79,3.19,1.79,5.07v324.3c0,15.15-11.02,27.43-24.63,27.43H26.13c-13.61,0-24.63-12.28-24.63-27.43Z"/>
    <path class="cls-1" d="m221.21,366.51V42.21c0-1.87.64-3.68,1.79-5.07l20.35-24.55c12.27-14.8,32.35-14.8,44.62,0l20.35,24.55c1.15,1.39,1.79,3.19,1.79,5.07v324.3c0,15.15-11.02,27.43-24.63,27.43h-39.63c-13.61,0-24.63-12.28-24.63-27.43Z"/>
  </g>
</svg>